<svg xmlns="http://www.w3.org/2000/svg" class="bp-map-svg" viewBox="0 0 920 430" role="img" aria-label="Map of the operations system: the data spine from materials to clients, the modules your answers switched on, and the estimate versus actual feedback loop."><style>a.bp-map-node{text-decoration:none}.bp-map-ink{color:#1c1a17}.bp-map-soft{color:#56504a}.bp-map-muted{color:#8a8278}.bp-map-accent{color:#b4470f}text{font-family:'Architects Daughter','Segoe Print','Comic Sans MS',ui-rounded,cursive;fill:currentColor}text.bp-map-sub{font-family:ui-monospace,'SF Mono',Menlo,Consolas,monospace;fill-opacity:.72}@media (prefers-color-scheme:dark){.bp-map-ink{color:#ece7dd}.bp-map-soft{color:#b1a99c}.bp-map-muted{color:#847c6f}.bp-map-accent{color:#e8843d}}</style><g class="bp-map-soft bp-map-edges"><path d="M149 229 C157.05 230.07, 167.35 229.11, 175 229 M149 229 C153.71 229.8, 169.37 228.65, 175 229 M175 229 C172.37 230.85, 169.51 232.53, 166.78 232.67 M175 229 C172.9 229.88, 169.46 231.92, 166.78 232.67 M175 229 C171.97 227.38, 169.8 226.1, 166.78 225.33 M175 229 C172.04 228.11, 169.25 226.13, 166.78 225.33" fill="none" stroke="currentColor" stroke-width="1.6" stroke-linecap="round" stroke-linejoin="round"/><path d="M298 229 C306.99 229.96, 318.63 227.13, 324 229 M298 229 C305.52 228.22, 315.47 228.67, 324 229 M324 229 C321.14 229.61, 317.99 231.48, 315.78 232.67 M324 229 C321.82 230.15, 317.95 231.41, 315.78 232.67 M324 229 C322.35 227.34, 317.95 225.66, 315.78 225.33 M324 229 C321.11 228.03, 318.51 226.43, 315.78 225.33" fill="none" stroke="currentColor" stroke-width="1.6" stroke-linecap="round" stroke-linejoin="round"/><path d="M447 229 C451.24 228.71, 465.79 227.86, 473 229 M447 229 C452.27 229.65, 466.91 229.74, 473 229 M473 229 C470.84 230.16, 467.2 231.14, 464.78 232.67 M473 229 C469.77 230.62, 467.74 231.64, 464.78 232.67 M473 229 C469.76 228.85, 467.52 226.02, 464.78 225.33 M473 229 C470.53 227.92, 467.23 226.45, 464.78 225.33" fill="none" stroke="currentColor" stroke-width="1.6" stroke-linecap="round" stroke-linejoin="round"/><path d="M596 229 C605.94 229.33, 612.05 227.94, 622 229 M596 229 C605.45 229.47, 612.99 227.88, 622 229 M622 229 C618.57 229.42, 614.87 231.56, 613.78 232.67 M622 229 C619.5 230.28, 617.06 231.18, 613.78 232.67 M622 229 C619.38 227.36, 616.22 225.73, 613.78 225.33 M622 229 C620.4 227.86, 616.47 226.33, 613.78 225.33" fill="none" stroke="currentColor" stroke-width="1.6" stroke-linecap="round" stroke-linejoin="round"/><path d="M745 229 C750.89 230.58, 762.8 227.95, 771 229 M745 229 C751.96 228.33, 763.77 228.9, 771 229 M771 229 C767.18 229.74, 764.66 232.33, 762.78 232.67 M771 229 C768.94 230.11, 764.7 231.36, 762.78 232.67 M771 229 C768.23 228, 764.69 227.23, 762.78 225.33 M771 229 C767.92 227.62, 765.22 226.14, 762.78 225.33" fill="none" stroke="currentColor" stroke-width="1.6" stroke-linecap="round" stroke-linejoin="round"/><path d="M684 256 C682.9 270.9, 684.85 315.9, 684 333 M684 256 C684.87 273.58, 683.68 312.28, 684 333 M684 333 C683.55 330.33, 681.53 327.05, 680.33 324.78 M684 333 C682.56 330.38, 680.81 327.1, 680.33 324.78 M684 333 C685.28 330.28, 686.38 327.43, 687.67 324.78 M684 333 C685.39 330.47, 686.39 326.83, 687.67 324.78" fill="none" stroke="currentColor" stroke-width="1.6" stroke-linecap="round" stroke-linejoin="round"/><path d="M88 112 C88.57 142.65, 87.25 168.49, 88 202 M88 112 C89.31 148.18, 89.1 166.82, 88 202" fill="none" stroke="currentColor" stroke-width="1.4" stroke-linecap="round" stroke-linejoin="round"/><path d="M217 112 C197.9 134.44, 167.33 166.37, 131 202 M217 112 C186.88 145.93, 162.87 169.96, 131 202" fill="none" stroke="currentColor" stroke-width="1.4" stroke-linecap="round" stroke-linejoin="round"/><path d="M684 112 C686.47 141.08, 683.89 171.1, 684 202 M684 112 C684.58 146.27, 685.75 171.84, 684 202" fill="none" stroke="currentColor" stroke-width="1.4" stroke-linecap="round" stroke-linejoin="round"/></g><g class="bp-map-accent bp-map-loop"><path class="bp-map-looppath" d="M607 367 C431.89 411.09, 128.43 406.68, 88 268 M607 367 C429.55 409.51, 128.74 407.22, 88 268" fill="none" stroke="currentColor" stroke-width="1.8" stroke-linecap="round" stroke-linejoin="round"/><path d="M89 280 C89.49 273.75, 86.89 271, 88 264 M89 280 C88.09 275.72, 88.49 270.33, 88 264 M88 264 C89.91 264.95, 89.77 268.54, 92.18 271.97 M88 264 C89.53 266.67, 90.9 269.19, 92.18 271.97 M88 264 C86.65 266.01, 86.86 269.97, 84.85 272.43 M88 264 C86.95 265.67, 85.32 270.57, 84.85 272.43" fill="none" stroke="currentColor" stroke-width="1.8" stroke-linecap="round" stroke-linejoin="round"/><text class="bp-map-label bp-map-looplabel" x="380" y="422" font-size="13" text-anchor="middle">estimate vs actual, fed back into rates and the next quote</text></g><g class="bp-map-ink bp-map-nodes"><a href="#bp-foundation" class="bp-map-node" data-node="materials" data-note="Your priced inputs: every material (unit cost, vendor) and every labor operation (station, standard minutes, rate)." aria-label="Materials &amp; labor (materials, labor_ops). Your priced inputs: every material (unit cost, vendor) and every labor operation (station, standard minutes, rate)."><path class="bp-map-box" d="M29 204 C65.89 201.71, 106.4 201.77, 147 204 M29 204 C61.04 202.7, 116.32 202.73, 147 204 M147 204 C145.47 218.73, 148.69 239.54, 147 254 M147 204 C147.68 222.08, 148.25 235.58, 147 254 M147 254 C105.01 256.11, 61.23 255.05, 29 254 M147 254 C117.17 254.99, 54.52 254.61, 29 254 M29 254 C28.53 236.82, 30.56 218.7, 29 204 M29 254 C29.03 241.43, 28.73 223.18, 29 204" fill="none" stroke="currentColor" stroke-width="1.6" stroke-linecap="round" stroke-linejoin="round"/><text class="bp-map-label" x="88" y="221" font-size="15" text-anchor="middle">Materials</text><text class="bp-map-label" x="88" y="236" font-size="15" text-anchor="middle">&amp; labor</text><text class="bp-map-sub" x="88" y="247" font-size="8" text-anchor="middle">materials · labor_ops</text></a><a href="#bp-foundation" class="bp-map-node" data-node="recipes" data-note="The bill of materials: binds a product to the materials it consumes." aria-label="Recipes (bom_lines). The bill of materials: binds a product to the materials it consumes."><path class="bp-map-box" d="M178 204 C220.43 204.96, 250.28 205.03, 296 204 M178 204 C219.72 203.63, 272.3 202.99, 296 204 M296 204 C295.91 222.12, 298.46 234.57, 296 254 M296 204 C296.62 223.4, 295.96 241.63, 296 254 M296 254 C259.83 255.24, 210.25 255.06, 178 254 M296 254 C268.39 255.13, 225 255.79, 178 254 M178 254 C176.65 239.77, 177.83 216.86, 178 204 M178 254 C178.06 236.28, 177.03 221.86, 178 204" fill="none" stroke="currentColor" stroke-width="1.6" stroke-linecap="round" stroke-linejoin="round"/><text class="bp-map-label" x="237" y="227" font-size="15" text-anchor="middle">Recipes</text><text class="bp-map-sub" x="237" y="247" font-size="8" text-anchor="middle">bom_lines</text></a><a href="#bp-foundation" class="bp-map-node" data-node="product" data-note="A template (product_templates) holds the parameters; a variant (product_variants) is a resolved configuration that can be costed and quoted." aria-label="Templates &amp; variants (product_templates, product_variants). A template (product_templates) holds the parameters; a variant (product_variants) is a resolved configuration that can be costed and quoted."><path class="bp-map-box" d="M327 204 C356.43 202.69, 402.32 204.07, 445 204 M327 204 C361.02 203.02, 401.62 203.49, 445 204 M445 204 C445.32 223.51, 446.85 239.96, 445 254 M445 204 C445.51 217.49, 444.4 240.08, 445 254 M445 254 C411.82 254.68, 362.67 254.56, 327 254 M445 254 C419.76 255.8, 367.02 255.62, 327 254 M327 254 C324.59 236.81, 327.92 222.11, 327 204 M327 254 C326.83 242.48, 327.46 219.88, 327 204" fill="none" stroke="currentColor" stroke-width="1.6" stroke-linecap="round" stroke-linejoin="round"/><g class="bp-map-muted" opacity="0.5"><path d="M332 240 C335.37 241.46, 338.45 244.64, 341 249 M332 231 C337.9 236.63, 344.78 241.75, 350 249 M332 222 C340.99 232.32, 347.76 237.6, 359 249 M332 213 C345.49 225.42, 357.97 238.15, 368 249 M337 209 C353.25 222.77, 363.07 234.34, 377 249 M346 209 C361.31 222.95, 372.06 233.88, 386 249 M355 209 C366.09 217.28, 385.91 237.5, 395 249 M364 209 C372.88 219.48, 389.34 233.34, 404 249 M373 209 C387.24 224.41, 399.75 233.68, 413 249 M382 209 C392.6 220.51, 410.61 235.65, 422 249 M391 209 C403.07 218.79, 422.47 240.11, 431 249 M400 209 C414.95 224.49, 424.29 232.56, 440 249 M409 209 C421.33 219.11, 430.98 232.26, 440 240 M418 209 C423.25 215.03, 435.52 225.94, 440 231 M427 209 C430.6 212.16, 435.81 218.2, 440 222 M436 209 C437.11 210.34, 438.92 211.81, 440 213" fill="none" stroke="currentColor" stroke-width="0.8" stroke-linecap="round" stroke-linejoin="round"/></g><text class="bp-map-label" x="386" y="221" font-size="15" text-anchor="middle">Templates</text><text class="bp-map-label" x="386" y="236" font-size="15" text-anchor="middle">&amp; variants</text><text class="bp-map-sub" x="386" y="247" font-size="8" text-anchor="middle">templates · variants</text></a><a href="#bp-foundation" class="bp-map-node" data-node="quotes" data-note="Priced output of the engine, versioned; every line item is priced by the same engine." aria-label="Quotes (quotes, quote_lines). Priced output of the engine, versioned; every line item is priced by the same engine."><path class="bp-map-box" d="M476 204 C512.88 203.46, 548.56 205.13, 594 204 M476 204 C509.7 204, 548.84 203.33, 594 204 M594 204 C592.99 224.25, 592.4 239.73, 594 254 M594 204 C595.13 217.32, 594.61 242.71, 594 254 M594 254 C563.05 254.85, 502.7 253.34, 476 254 M594 254 C570.02 255.45, 500.69 255.04, 476 254 M476 254 C474.89 244.62, 475.83 219.72, 476 204 M476 254 C475.27 241.63, 476.11 221.37, 476 204" fill="none" stroke="currentColor" stroke-width="1.6" stroke-linecap="round" stroke-linejoin="round"/><text class="bp-map-label" x="535" y="227" font-size="15" text-anchor="middle">Quotes</text><text class="bp-map-sub" x="535" y="247" font-size="8" text-anchor="middle">quotes · quote_lines</text></a><a href="#bp-foundation" class="bp-map-node" data-node="jobs" data-note="A job from quote through delivery." aria-label="Jobs (projects). A job from quote through delivery."><path class="bp-map-box" d="M625 204 C648.81 203.35, 697.07 202.95, 743 204 M625 204 C648.05 202.91, 715.62 202.6, 743 204 M743 204 C744.39 216.39, 743.57 244.39, 743 254 M743 204 C743.35 217.97, 743.45 236.38, 743 254 M743 254 C713.76 254.73, 651.13 255.63, 625 254 M743 254 C708.87 255.76, 655.25 254.89, 625 254 M625 254 C625.86 244.74, 626.01 217.19, 625 204 M625 254 C624.52 240.05, 624.61 218.56, 625 204" fill="none" stroke="currentColor" stroke-width="1.6" stroke-linecap="round" stroke-linejoin="round"/><text class="bp-map-label" x="684" y="227" font-size="15" text-anchor="middle">Jobs</text><text class="bp-map-sub" x="684" y="247" font-size="8" text-anchor="middle">projects</text></a><a href="#bp-foundation" class="bp-map-node" data-node="clients" data-note="Owns projects and quotes." aria-label="Clients (clients). Owns projects and quotes."><path class="bp-map-box" d="M774 204 C805.32 204.16, 857.74 203.31, 892 204 M774 204 C804.37 202.31, 865.58 202.04, 892 204 M892 204 C892.87 224.68, 891.72 233.86, 892 254 M892 204 C892.14 223.75, 891.68 241.29, 892 254 M892 254 C866.92 255.36, 799.68 253.47, 774 254 M892 254 C865.65 254.99, 808.97 254.96, 774 254 M774 254 C775.09 237.85, 772.05 216.87, 774 204 M774 254 C774.5 235.05, 774.16 214.66, 774 204" fill="none" stroke="currentColor" stroke-width="1.6" stroke-linecap="round" stroke-linejoin="round"/><text class="bp-map-label" x="833" y="227" font-size="15" text-anchor="middle">Clients</text><text class="bp-map-sub" x="833" y="247" font-size="8" text-anchor="middle">clients</text></a><a href="#bp-process" class="bp-map-node" data-node="actuals" data-note="What the floor actually consumed, compared back to the estimate. The most valuable data you produce." aria-label="Shop-floor actuals (production_actuals). What the floor actually consumed, compared back to the estimate. The most valuable data you produce."><path class="bp-map-box" d="M609 336 C663.3 333.48, 707.8 332.87, 759 336 M609 336 C661.55 334.45, 707.89 334.5, 759 336 M759 336 C760.34 357.76, 759.01 376.97, 759 386 M759 336 C760.32 353.52, 758.43 370.16, 759 386 M759 386 C714.81 389.21, 646.68 387.32, 609 386 M759 386 C706.27 387.64, 667.79 386.68, 609 386 M609 386 C608.11 364.84, 609.74 351.28, 609 336 M609 386 C608.03 375.4, 609.59 351.46, 609 336" fill="none" stroke="currentColor" stroke-width="1.6" stroke-linecap="round" stroke-linejoin="round"/><text class="bp-map-label" x="684" y="359" font-size="15" text-anchor="middle">Shop-floor actuals</text><text class="bp-map-sub" x="684" y="379" font-size="8" text-anchor="middle">production_actuals</text></a><a href="#bp-foundation" class="bp-map-node bp-map-soft" data-node="cutting" data-note="The raw stock you cut from, and the parts nested onto it to compute yield." aria-label="Sheets &amp; cutting (stock_items, cut_parts). The raw stock you cut from, and the parts nested onto it to compute yield."><path class="bp-map-box" d="M29 64 C68.64 63.07, 116 62.81, 147 64 M29 64 C75.97 63.17, 110.74 62.25, 147 64 M147 64 C147.33 80.85, 147.67 92.07, 147 110 M147 64 C146.69 81.03, 147.12 91.61, 147 110 M147 110 C101.69 110.9, 76.21 108.88, 29 110 M147 110 C110.75 110.07, 75.17 111.95, 29 110 M29 110 C29.22 98.18, 27.54 76.19, 29 64 M29 110 C28.28 93.23, 29.15 79.38, 29 64" fill="none" stroke="currentColor" stroke-width="1.6" stroke-linecap="round" stroke-linejoin="round"/><text class="bp-map-label" x="88" y="79" font-size="13.5" text-anchor="middle">Sheets &amp;</text><text class="bp-map-label" x="88" y="94" font-size="13.5" text-anchor="middle">cutting</text><text class="bp-map-sub" x="88" y="103" font-size="7.4" text-anchor="middle">stock_items · cut_parts</text></a><a href="#bp-foundation" class="bp-map-node bp-map-soft" data-node="inventory" data-note="Current stock levels, decremented on consumption." aria-label="Inventory (inventory). Current stock levels, decremented on consumption."><path class="bp-map-box" d="M178 64 C208.36 64.69, 267.53 64.47, 296 64 M178 64 C222.57 62.82, 265.52 62.31, 296 64 M296 64 C295.09 80.65, 296.22 96.05, 296 110 M296 64 C296.07 76.71, 295.66 93.58, 296 110 M296 110 C254.94 109.78, 209.54 109.2, 178 110 M296 110 C250.16 111.91, 216.61 111.83, 178 110 M178 110 C178.88 100.25, 176.45 81.63, 178 64 M178 110 C178.68 96.2, 176.96 73.78, 178 64" fill="none" stroke="currentColor" stroke-width="1.6" stroke-linecap="round" stroke-linejoin="round"/><text class="bp-map-label" x="237" y="85" font-size="13.5" text-anchor="middle">Inventory</text><text class="bp-map-sub" x="237" y="103" font-size="8" text-anchor="middle">inventory</text></a><a href="#bp-foundation" class="bp-map-node bp-map-soft" data-node="delivery" data-note="Shipping and delivery scheduling." aria-label="Deliveries (deliveries). Shipping and delivery scheduling."><path class="bp-map-box" d="M625 64 C651.24 64.47, 716.24 61.85, 743 64 M625 64 C660.08 63.61, 711.85 62.5, 743 64 M743 64 C744.5 75.41, 742.14 98.84, 743 110 M743 64 C742.7 80.88, 743.45 96.38, 743 110 M743 110 C700.83 112.68, 647.32 110.67, 625 110 M743 110 C703.11 111.8, 666.55 111.39, 625 110 M625 110 C625.36 98.99, 626.56 75.03, 625 64 M625 110 C623.81 96.15, 623.69 78.29, 625 64" fill="none" stroke="currentColor" stroke-width="1.6" stroke-linecap="round" stroke-linejoin="round"/><text class="bp-map-label" x="684" y="85" font-size="13.5" text-anchor="middle">Deliveries</text><text class="bp-map-sub" x="684" y="103" font-size="8" text-anchor="middle">deliveries</text></a></g></svg>